<svg width="413" height="36" viewBox="0 0 413 36" fill="none" xmlns="http://www.w3.org/2000/svg">
<path d="M26.8125 21.96H7.79351V17.208H32.318C31.6745 15.192 29.601 13.32 25.9545 13.32H8.15101C4.07551 13.32 1.71601 14.832 1.71601 18.144V21.672C1.71601 24.552 4.14701 26.208 7.72201 26.208H26.9555V31.248H1.07251C1.71601 33.984 3.78951 35.424 7.50751 35.424H26.884C30.9595 35.424 32.9615 33.84 32.9615 30.456V26.928C32.9615 23.832 30.602 22.176 26.8125 21.96Z" fill="white"/>
<path d="M65.6371 13.392H42.1851V35.496H48.8346V27H66.1376C70.9281 27 73.5736 25.344 73.5736 21.456V19.008C73.5021 15.408 70.4991 13.392 65.6371 13.392ZM67.7821 20.448C67.7821 22.032 67.4961 22.896 64.9221 22.896H48.8346L48.9061 17.136H64.6361C67.4961 17.136 67.8536 18 67.8536 19.512V20.448H67.7821Z" fill="white"/>
<path d="M92.8786 12.456L88.8746 17.424L95.6671 26.856H81.5101L78.0066 30.6H98.4556L101.959 35.496H109.824L92.8786 12.456Z" fill="white"/>
<path d="M122.551 17.208H147.433C146.79 14.616 144.287 13.32 140.712 13.32H122.122C118.905 13.32 115.83 14.616 115.83 18.144V30.528C115.83 34.056 118.905 35.352 122.122 35.352H140.927C145.217 35.352 146.718 34.128 147.433 31.176H122.551V17.208Z" fill="white"/>
<path d="M163.234 31.32V24.552H176.605V20.808H156.513V35.496H186.186V31.32H163.234Z" fill="white"/>
<path d="M187.187 13.392H157.229V17.28H187.187V13.392Z" fill="white"/>
<path d="M205.634 13.392H195.195L207.493 22.464C209.281 21.24 211.354 19.944 213.213 18.864L205.634 13.392Z" fill="white"/>
<path d="M220.792 24.696C219.004 25.92 217.217 27.288 215.501 28.584L224.796 35.424H235.306L220.792 24.696Z" fill="white"/>
<path d="M285.285 0.503998C228.085 3.816 201.63 28.44 195.695 34.272L194.48 35.424H205.062C233.662 6.552 274.774 1.44 285.285 0.503998Z" fill="white"/>
<path d="M330.728 23V21.264H326.108V18.842H330.042V17.106H326.108V14.768H330.728V13.032H324.162V23H330.728ZM339.849 23L336.741 17.89L339.639 13.032H337.441L335.691 16.252L333.955 13.032H331.743L334.641 17.89L331.547 23H333.773L335.691 19.528L337.623 23H339.849ZM348.228 16.14C348.228 14.446 346.996 13.032 344.938 13.032H341.074V23H343.02V19.248H344.938C346.996 19.248 348.228 17.834 348.228 16.14ZM346.282 16.14C346.282 16.952 345.722 17.498 344.84 17.498H343.02V14.768H344.84C345.722 14.768 346.282 15.328 346.282 16.14ZM356.333 23V21.264H351.811V13.032H349.865V23H356.333ZM364.577 18.016C364.577 16.294 364.591 15.048 363.583 14.04C362.883 13.34 362.029 12.948 360.895 12.948C359.761 12.948 358.893 13.34 358.193 14.04C357.185 15.048 357.213 16.294 357.213 18.016C357.213 19.738 357.185 20.984 358.193 21.992C358.893 22.692 359.761 23.084 360.895 23.084C362.029 23.084 362.883 22.692 363.583 21.992C364.591 20.984 364.577 19.738 364.577 18.016ZM362.631 18.016C362.631 19.934 362.519 20.396 362.141 20.816C361.861 21.138 361.427 21.348 360.895 21.348C360.363 21.348 359.915 21.138 359.635 20.816C359.257 20.396 359.159 19.934 359.159 18.016C359.159 16.098 359.257 15.636 359.635 15.216C359.915 14.894 360.363 14.684 360.895 14.684C361.427 14.684 361.861 14.894 362.141 15.216C362.519 15.636 362.631 16.098 362.631 18.016ZM374.104 23L371.878 18.702C372.844 18.352 373.698 17.484 373.698 16.084C373.698 14.418 372.494 13.032 370.464 13.032H366.558V23H368.504V19.024H369.904L371.85 23H374.104ZM371.752 16.084C371.752 16.854 371.192 17.4 370.338 17.4H368.504V14.768H370.338C371.192 14.768 371.752 15.314 371.752 16.084ZM382.285 23V21.264H377.665V18.842H381.599V17.106H377.665V14.768H382.285V13.032H375.719V23H382.285ZM391.741 23L389.515 18.702C390.481 18.352 391.335 17.484 391.335 16.084C391.335 14.418 390.131 13.032 388.101 13.032H384.195V23H386.141V19.024H387.541L389.487 23H391.741ZM389.389 16.084C389.389 16.854 388.829 17.4 387.975 17.4H386.141V14.768H387.975C388.829 14.768 389.389 15.314 389.389 16.084Z" fill="white"/>
<rect x="303.5" y="3.5" width="109" height="29" stroke="white"/>
</svg>
